<svg width="114" height="56" viewBox="0 0 114 56" fill="none" xmlns="http://www.w3.org/2000/svg">
<g filter="url(#filter0_d_7_4)">
<path fill-rule="evenodd" clip-rule="evenodd" d="M4.15054 0.189359C4.06772 0.197373 4 0.216642 4 0.232251C4 0.247815 4.07314 0.408037 4.16249 0.588269C4.55339 1.37645 5.13031 1.93072 5.86967 2.22842C6.04555 2.29924 6.82831 2.30749 15.4179 2.32875C24.4159 2.35103 24.7835 2.35525 25.0062 2.43862C25.4924 2.62057 25.7729 2.91591 25.9469 3.42932C26.0134 3.62525 26.0246 4.36378 26.0515 10.2958C26.0711 14.6165 26.1005 17.1941 26.1355 17.6607C26.2501 19.1859 26.4128 20.0891 26.7656 21.1579C27.156 22.3409 27.5736 23.2089 28.7703 25.3256C29.7903 27.1296 30.0126 27.5533 30.3022 28.2449C30.9539 29.8013 31.2189 31.3593 31.1005 32.9397C30.9747 34.6188 30.5488 36.3926 29.8472 38.1587C29.6258 38.7161 28.8527 40.3576 28.8117 40.3576C28.8017 40.3576 28.8205 40.2412 28.8536 40.0989C29.1647 38.7608 29.1114 37.1412 28.7104 35.7479C28.4933 34.9937 27.9666 33.8757 27.3933 32.9523C27.2134 32.6625 26.6965 31.8965 26.2447 31.2499C24.9905 29.4554 24.5468 28.7106 24.1275 27.6963C23.9008 27.1476 23.6192 26.0249 23.5031 25.2065C23.4063 24.5246 23.2692 22.977 23.2692 22.567C23.2692 22.4417 23.2525 22.3391 23.2322 22.3391C23.2118 22.3391 23.0713 22.4878 22.92 22.6695C22.5513 23.112 21.9304 23.6907 21.4649 24.0256C19.8344 25.1985 17.9403 25.8163 14.7 26.2319C11.6816 26.6191 9.77766 27.2987 8.20008 28.5521C7.74221 28.9159 6.98223 29.6925 6.64211 30.144C5.32017 31.8992 4.67183 34.0155 4.75483 36.3046C4.86489 39.3399 6.03948 42.0237 8.1515 44.0653C10.4177 46.2561 13.5434 47.6235 17.0391 47.9536C17.6955 48.0156 19.543 48.0154 20.1677 47.9533C23.9622 47.5759 27.2005 45.8607 29.4801 43.0211C31.4307 40.5912 32.697 37.0688 32.9021 33.5023C32.9316 32.9911 32.9492 27.3785 32.9498 18.3092C32.9505 8.57735 32.9664 3.83078 32.999 3.62988C33.0947 3.03995 33.388 2.63678 33.86 2.44645C34.0697 2.36187 34.2434 2.35395 36.4242 2.32977C38.7154 2.30429 38.7687 2.30165 39.0248 2.19896C39.4671 2.02165 39.9068 1.66429 40.2899 1.17075C40.5113 0.885552 40.8467 0.251058 40.8005 0.204876C40.7713 0.175695 4.45139 0.160363 4.15054 0.189359ZM25.6086 13.8277C25.4483 14.5026 25.1931 15.7059 25.0806 16.3175C24.3447 20.3149 24.708 23.0381 26.3516 25.844C26.4983 26.0945 27.0082 26.8935 27.4846 27.6196C28.8252 29.6628 29.2018 30.3357 29.6748 31.5336C30.0653 32.5227 30.4488 34.0635 30.4488 34.6431C30.4488 34.7289 30.4697 34.7992 30.4952 34.7992C30.5576 34.7992 30.5558 33.1875 30.4928 32.6453C30.3187 31.148 29.8419 29.6766 29.0307 28.1338C28.8646 27.8179 28.425 27.0363 28.0538 26.3968C27.3004 25.0987 26.9577 24.4505 26.6386 23.72C25.7882 21.7732 25.4494 19.7968 25.5087 17.1281C25.5335 16.0115 25.6228 14.5527 25.7037 13.9435C25.7228 13.7994 25.7157 13.7235 25.6831 13.7235C25.6557 13.7235 25.6222 13.7704 25.6086 13.8277ZM21.9132 25.3637C21.3571 25.7599 20.8087 26.0661 20.145 26.3511C19.0006 26.8422 18.1382 27.0853 16.3052 27.433C14.5657 27.7629 13.9244 27.9394 13.0556 28.3274C12.0391 28.7812 11.3135 29.2776 10.5775 30.0224C9.52081 31.0917 8.81471 32.4585 8.46865 34.1044C8.31862 34.8178 8.26076 36.2818 8.35141 37.071C8.70558 40.1549 10.2808 42.7097 12.8703 44.4001C15.9054 46.3813 20.1602 46.7104 23.2777 45.205C26.6422 43.5803 28.4281 39.9742 27.599 36.4793C27.4421 35.8178 27.2074 35.2098 26.8121 34.4409C26.3946 33.6288 26.1232 33.1946 25.2536 31.9481C23.3159 29.1708 22.6632 27.7044 22.3886 25.5127C22.3599 25.2838 22.3319 25.092 22.3264 25.0865C22.3209 25.081 22.1349 25.2057 21.9132 25.3637ZM21.6527 26.7082C21.4528 27.2383 21.0091 28.1028 20.6976 28.5691C19.9358 29.7099 19.4334 30.2943 17.6906 32.0669C15.995 33.7917 15.5027 34.4053 14.9784 35.4477C13.9362 37.5196 14.0119 39.8483 15.186 41.8352C16.8556 44.6606 20.4724 45.7147 23.4313 44.2382C24.4746 43.7176 25.4102 42.87 26.0576 41.8588C26.4811 41.1975 26.8735 40.139 27.0006 39.3154C27.1044 38.6432 27.0711 37.472 26.9309 36.8605C26.7318 35.9921 26.4005 35.164 25.9088 34.3047C25.6383 33.8321 24.6147 32.2727 24.2419 31.7652C23.5297 30.7959 22.7208 29.357 22.367 28.4302C22.1634 27.8968 21.8333 26.7366 21.8333 26.5545C21.8333 26.3685 21.7561 26.4343 21.6527 26.7082ZM21.5086 28.6007C21.2024 29.275 20.6508 30.1732 20.052 30.9727C19.606 31.5681 19.2348 32.0064 18.2236 33.1317C16.7332 34.7902 16.2248 35.5436 15.8637 36.6289C15.5007 37.7196 15.4827 39.0579 15.8175 40.0784C16.0524 40.7946 16.5206 41.5665 17.0276 42.0735C18.014 43.0599 19.2315 43.5537 20.6773 43.5537C22.048 43.5537 23.2139 43.0699 24.2023 42.0909C25.7397 40.5682 26.1823 38.247 25.3599 36.0201C25.0783 35.2575 24.6525 34.4623 23.7266 32.9696C22.6652 31.2586 22.0366 29.9459 21.7455 28.8323L21.6205 28.3544L21.5086 28.6007Z" fill="white"/>
</g>
<path d="M62.4318 47.727V25.606H65.7543L67.0226 32.6156L68.87 45.9297H69.4904L69.1457 33.5557L69.0079 25.606H70.9655V47.727H67.5052L66.1127 39.8464L64.5687 27.4033H63.9069L64.224 39.4316L64.3619 47.727H62.4318ZM77.4751 47.9206C76.5743 47.9206 75.8529 47.7961 75.3106 47.5473C74.7683 47.2892 74.3685 46.8837 74.1112 46.3306C73.8631 45.7684 73.7252 45.0357 73.6976 44.1324C73.6701 42.9065 73.6516 41.6714 73.6425 40.4271C73.6333 39.1828 73.6287 37.9385 73.6287 36.6942C73.6287 35.4498 73.6333 34.2102 73.6425 32.9751C73.6516 31.7307 73.6701 30.4956 73.6976 29.2698C73.7252 28.3388 73.8677 27.5922 74.125 27.03C74.3823 26.4585 74.7821 26.0484 75.3244 25.7995C75.8667 25.5415 76.579 25.4124 77.4613 25.4124C78.7205 25.4124 79.6396 25.7074 80.2186 26.2973C80.8068 26.8779 81.1285 27.8366 81.1836 29.173C81.2112 29.8643 81.225 30.5556 81.225 31.2468C81.225 31.929 81.2112 32.6202 81.1836 33.3207H79.1846C79.2122 32.5926 79.226 31.8505 79.226 31.0948C79.226 30.339 79.2122 29.5969 79.1846 28.8688C79.157 28.2513 79.0008 27.8043 78.7159 27.5278C78.4402 27.2421 78.0219 27.0992 77.4613 27.0992C76.8639 27.0992 76.4227 27.2421 76.1378 27.5278C75.8621 27.8043 75.7151 28.2513 75.6967 28.8688C75.6599 30.1684 75.6369 31.4681 75.6277 32.7677C75.6186 34.0673 75.6139 35.3669 75.6139 36.6665C75.6139 37.9569 75.6186 39.2519 75.6277 40.5515C75.6369 41.8419 75.6599 43.1416 75.6967 44.4503C75.7058 45.0678 75.8483 45.5196 76.124 45.8053C76.4089 46.0818 76.8593 46.22 77.4751 46.22C78.0817 46.22 78.5367 46.0818 78.84 45.8053C79.1524 45.5196 79.3178 45.0678 79.3363 44.4503C79.3454 43.9711 79.35 43.4872 79.35 42.9986C79.3592 42.5101 79.3592 42.0217 79.35 41.5331C79.35 41.0446 79.3454 40.5607 79.3363 40.0814H77.5303V38.2979H81.2939C81.3124 39.0169 81.3169 39.8556 81.3077 40.8142C81.3077 41.7728 81.2986 42.8789 81.2801 44.1324C81.225 45.4781 80.9033 46.4459 80.3151 47.0357C79.7269 47.6256 78.7802 47.9206 77.4751 47.9206ZM83.7576 47.727V25.606H85.7566V45.9297H90.2372V47.727H83.7576ZM91.9702 47.727V25.606H93.9693V47.727H91.9702ZM100.29 47.9206C98.9669 47.9206 98.0157 47.6256 97.4367 47.0357C96.8669 46.4459 96.5543 45.4781 96.4992 44.1324C96.49 43.5885 96.4809 43.0863 96.4716 42.6254C96.4716 42.1645 96.4763 41.7037 96.4854 41.2428C96.4947 40.7727 96.513 40.2612 96.5405 39.7081H98.4431C98.4063 40.51 98.3879 41.3119 98.3879 42.1138C98.3879 42.9157 98.4063 43.6946 98.4431 44.4503C98.4799 45.0678 98.6361 45.5196 98.9118 45.8053C99.1968 46.0818 99.6517 46.22 100.277 46.22C100.893 46.22 101.329 46.0818 101.586 45.8053C101.853 45.5196 102.005 45.0678 102.041 44.4503C102.078 43.9434 102.096 43.4917 102.096 43.0954C102.106 42.6898 102.106 42.2797 102.096 41.8649C102.087 41.441 102.069 40.9524 102.041 40.3994C102.023 39.7266 101.927 39.1643 101.752 38.7127C101.577 38.2611 101.233 37.9661 100.718 37.8279L99.2013 37.4407C98.4844 37.2564 97.9285 36.9845 97.5332 36.625C97.1471 36.2656 96.8761 35.7908 96.7198 35.201C96.5728 34.6111 96.4854 33.8875 96.4578 33.0304C96.4487 32.4497 96.444 31.8183 96.444 31.1362C96.4533 30.4541 96.4625 29.7952 96.4716 29.1592C96.4992 28.2652 96.6371 27.5416 96.8852 26.9885C97.1426 26.4355 97.5469 26.0346 98.0984 25.7857C98.6499 25.5369 99.376 25.4124 100.277 25.4124C101.554 25.4124 102.473 25.7074 103.034 26.2973C103.604 26.8779 103.912 27.8366 103.958 29.173C103.976 29.6799 103.981 30.2975 103.971 31.0256C103.971 31.7537 103.962 32.5188 103.944 33.3207H102.014C102.041 32.5833 102.055 31.8414 102.055 31.0948C102.064 30.3482 102.055 29.6062 102.028 28.8688C102 28.2513 101.844 27.8043 101.559 27.5278C101.283 27.2421 100.851 27.0992 100.263 27.0992C99.6471 27.0992 99.206 27.2421 98.9394 27.5278C98.6729 27.8043 98.5166 28.2513 98.4706 28.8688C98.4339 29.5601 98.4155 30.2561 98.4155 30.9565C98.4248 31.6478 98.4431 32.3391 98.4706 33.0304C98.4982 33.8138 98.5993 34.4129 98.7739 34.8277C98.9486 35.2333 99.3116 35.5005 99.8631 35.6296L101.255 35.9752C102 36.1503 102.57 36.4268 102.965 36.8048C103.36 37.1827 103.636 37.6666 103.792 38.2565C103.948 38.8463 104.04 39.5607 104.068 40.3994C104.077 40.934 104.082 41.3949 104.082 41.782C104.082 42.1599 104.077 42.5286 104.068 42.888C104.068 43.2475 104.059 43.6623 104.04 44.1324C103.994 45.4781 103.682 46.4459 103.103 47.0357C102.533 47.6256 101.596 47.9206 100.29 47.9206ZM106.51 47.727V25.606H108.51V35.6849H111.984V25.606H113.983V47.727H111.984V37.4822H108.51V47.727H106.51Z" fill="white"/>
<g filter="url(#filter1_d_7_4)">
<path d="M42.1018 47.9206V0H46.8583V47.9206H42.1018ZM50.0591 47.9206V43.6377H57.9865V47.9206H50.0591ZM50.0591 25.967V21.6841H57.3882V25.967H50.0591ZM50.0591 4.2829V0H57.9865V4.2829H50.0591Z" fill="white"/>
</g>
<defs>
<filter id="filter0_d_7_4" x="0" y="0.173832" width="44.8048" height="55.8262" filterUnits="userSpaceOnUse" color-interpolation-filters="sRGB">
<feFlood flood-opacity="0" result="BackgroundImageFix"/>
<feColorMatrix in="SourceAlpha" type="matrix" values="0 0 0 0 0 0 0 0 0 0 0 0 0 0 0 0 0 0 127 0" result="hardAlpha"/>
<feOffset dy="4"/>
<feGaussianBlur stdDeviation="2"/>
<feComposite in2="hardAlpha" operator="out"/>
<feColorMatrix type="matrix" values="0 0 0 0 0 0 0 0 0 0 0 0 0 0 0 0 0 0 0.25 0"/>
<feBlend mode="normal" in2="BackgroundImageFix" result="effect1_dropShadow_7_4"/>
<feBlend mode="normal" in="SourceGraphic" in2="effect1_dropShadow_7_4" result="shape"/>
</filter>
<filter id="filter1_d_7_4" x="38.1018" y="0" width="23.8847" height="55.9206" filterUnits="userSpaceOnUse" color-interpolation-filters="sRGB">
<feFlood flood-opacity="0" result="BackgroundImageFix"/>
<feColorMatrix in="SourceAlpha" type="matrix" values="0 0 0 0 0 0 0 0 0 0 0 0 0 0 0 0 0 0 127 0" result="hardAlpha"/>
<feOffset dy="4"/>
<feGaussianBlur stdDeviation="2"/>
<feComposite in2="hardAlpha" operator="out"/>
<feColorMatrix type="matrix" values="0 0 0 0 0 0 0 0 0 0 0 0 0 0 0 0 0 0 0.25 0"/>
<feBlend mode="normal" in2="BackgroundImageFix" result="effect1_dropShadow_7_4"/>
<feBlend mode="normal" in="SourceGraphic" in2="effect1_dropShadow_7_4" result="shape"/>
</filter>
</defs>
</svg>
