<svg width="100" height="100" viewBox="0 0 100 100" fill="none" xmlns="http://www.w3.org/2000/svg">
<g clip-path="url(#clip0_42_3388)">
<path d="M0 99.995H100V0H0V99.995Z" fill="#E3120B"/>
<path d="M72.129 66.6L70.1352 81.1625L63.4602 81.25L42.2227 81.0763L27.834 81.1637L28.094 78.91C34.4215 78.735 36.069 77.0025 36.069 70.5013V29.5C36.069 23 34.4215 21.265 28.094 21.0912L27.834 18.8375L41.2702 19.0125L62.4202 18.75L67.969 18.8375L68.3152 31.58L64.8477 31.84C64.2415 23.9513 62.7677 23.085 50.2852 23.085H48.3777L47.5102 23.1713V46.7487C49.1577 46.7487 50.4577 46.8363 51.239 46.8363C52.6265 46.9238 53.9265 47.01 55.2265 47.01C62.1602 47.01 63.7215 45.535 63.8077 38.9475H66.7552C66.4952 44.235 66.4952 46.9225 66.4952 49.5225C66.4952 51.6037 66.4952 54.5513 66.5827 58.4513H63.8077C63.4615 52.21 62.074 50.9963 55.399 50.91L50.719 50.8225L47.424 50.9975V69.2875C47.424 76.655 47.8577 77.0025 55.139 77.0025C64.934 77.0025 67.7952 74.835 68.6615 66.4275L72.129 66.6Z" fill="white"/>
</g>
<defs>
<clipPath id="clip0_42_3388">
<rect width="100" height="100" fill="white"/>
</clipPath>
</defs>
</svg>