<svg width="128" height="128" viewBox="0 0 128 128" fill="none" xmlns="http://www.w3.org/2000/svg" role="img" aria-labelledby="title desc">
  <title id="title">You matter heart icon</title>
  <desc id="desc">A simple white line heart icon.</desc>
  <g fill="none" stroke="#FFFFFF" stroke-width="6" stroke-linecap="round" stroke-linejoin="round">
    <path d="M64 104C54 94 44 85 36 76C26 65 20 56 20 45C20 34 28 26 39 26C50 26 58 33 64 43C70 33 78 26 89 26C100 26 108 34 108 45C108 56 102 65 92 76C84 85 74 94 64 104Z" />
    <path d="M42 42C36 42 32 46 32 52" />
  </g>
</svg>
